<svg width="77" height="76" viewBox="0 0 77 76" fill="none" xmlns="http://www.w3.org/2000/svg">
<rect width="76" height="76" transform="translate(0.54541)" fill="white"/>
<path d="M47.6001 21.8427H62.4067V25.4349H47.6001V21.8427ZM32.7638 36.0556C36.0368 34.4896 37.7513 32.1072 37.7513 28.4259C37.7513 21.1451 32.3333 19.3787 26.0767 19.3787H8.85791V55.924H26.5591C33.1942 55.924 39.4212 52.7326 39.4212 45.3107C39.4212 40.724 37.254 37.3322 32.7638 36.0556V36.0556ZM16.8884 25.613H24.4216C27.3235 25.613 29.9286 26.422 29.9286 29.7916C29.9286 32.8939 27.9024 34.1408 25.0302 34.1408H16.8884V25.613ZM25.4606 49.7193H16.881V39.6552H25.6313C29.1642 39.6552 31.3981 41.1322 31.3981 44.8728C31.3981 48.5541 28.7337 49.7193 25.4606 49.7193V49.7193ZM68.1958 43.0767C68.1958 35.2466 63.6165 28.7228 55.3337 28.7228C47.281 28.7228 41.8036 34.7865 41.8036 42.7353C41.8036 50.9736 46.9915 56.6291 55.3337 56.6291C61.6497 56.6291 65.7392 53.7865 67.706 47.7228H61.3009C60.6032 49.9865 57.7681 51.174 55.5638 51.174C51.3036 51.174 49.0771 48.6802 49.0771 44.4423H68.1438C68.1661 44.0044 68.1958 43.5443 68.1958 43.0767V43.0767ZM49.0771 39.8556C49.3071 36.3748 51.6302 34.2001 55.1036 34.2001C58.7552 34.2001 60.581 36.3451 60.9001 39.8556H49.0771Z" fill="#F82103"/>
</svg>
