<svg width="50" height="50" viewBox="0 0 50 50" fill="none" xmlns="http://www.w3.org/2000/svg">
<path d="M32.7288 5.57937C32.7882 5.38638 32.809 5.1836 32.7899 4.9826C32.7709 4.78159 32.7125 4.5863 32.618 4.40787C32.5235 4.22945 32.3948 4.07138 32.2392 3.9427C32.0836 3.81401 31.9042 3.71724 31.7112 3.65789C31.5182 3.59854 31.3155 3.57778 31.1145 3.5968C30.9135 3.61582 30.7182 3.67425 30.5397 3.76874C30.3613 3.86324 30.2032 3.99195 30.0746 4.14753C29.9459 4.30312 29.8491 4.48252 29.7898 4.6755L17.4923 44.6423C17.3724 45.032 17.4123 45.4534 17.6031 45.8138C17.794 46.1741 18.1201 46.4439 18.5099 46.5638C18.8996 46.6836 19.321 46.6438 19.6814 46.4529C20.0417 46.2621 20.3115 45.9359 20.4314 45.5462L32.7288 5.57937V5.57937ZM15.4386 13.2622C15.5818 13.405 15.6953 13.5746 15.7728 13.7614C15.8503 13.9481 15.8902 14.1483 15.8902 14.3505C15.8902 14.5527 15.8503 14.7529 15.7728 14.9397C15.6953 15.1264 15.5818 15.2961 15.4386 15.4389L5.76356 25.1108L15.4386 34.7828C15.7272 35.0714 15.8894 35.4629 15.8894 35.8711C15.8894 36.2793 15.7272 36.6708 15.4386 36.9595C15.15 37.2481 14.7585 37.4102 14.3503 37.4102C13.9421 37.4102 13.5506 37.2481 13.2619 36.9595L2.50165 26.1992C2.3585 26.0564 2.24493 25.8867 2.16743 25.7C2.08994 25.5132 2.05005 25.313 2.05005 25.1108C2.05005 24.9086 2.08994 24.7084 2.16743 24.5217C2.24493 24.3349 2.3585 24.1653 2.50165 24.0225L13.2619 13.2622C13.4047 13.1191 13.5744 13.0055 13.7611 12.928C13.9479 12.8505 14.1481 12.8106 14.3503 12.8106C14.5525 12.8106 14.7527 12.8505 14.9394 12.928C15.1262 13.0055 15.2958 13.1191 15.4386 13.2622V13.2622ZM34.7825 13.2622C34.6394 13.405 34.5258 13.5746 34.4483 13.7614C34.3708 13.9481 34.3309 14.1483 34.3309 14.3505C34.3309 14.5527 34.3708 14.7529 34.4483 14.9397C34.5258 15.1264 34.6394 15.2961 34.7825 15.4389L44.4576 25.1108L34.7825 34.7828C34.6396 34.9257 34.5262 35.0954 34.4489 35.2821C34.3715 35.4689 34.3317 35.669 34.3317 35.8711C34.3317 36.0732 34.3715 36.2734 34.4489 36.4601C34.5262 36.6469 34.6396 36.8165 34.7825 36.9595C34.9254 37.1024 35.0951 37.2157 35.2819 37.2931C35.4686 37.3704 35.6687 37.4102 35.8709 37.4102C36.073 37.4102 36.2731 37.3704 36.4599 37.2931C36.6466 37.2157 36.8163 37.1024 36.9592 36.9595L47.7195 26.1992C47.8626 26.0564 47.9762 25.8867 48.0537 25.7C48.1312 25.5132 48.1711 25.313 48.1711 25.1108C48.1711 24.9086 48.1312 24.7084 48.0537 24.5217C47.9762 24.3349 47.8626 24.1653 47.7195 24.0225L36.9592 13.2622C36.8164 13.1191 36.6468 13.0055 36.46 12.928C36.2733 12.8505 36.073 12.8106 35.8709 12.8106C35.6687 12.8106 35.4685 12.8505 35.2817 12.928C35.0949 13.0055 34.9253 13.1191 34.7825 13.2622V13.2622Z" fill="#F82103"/>
</svg>
