<svg width="53" height="52" viewBox="0 0 53 52" fill="none" xmlns="http://www.w3.org/2000/svg">
<rect width="51.8182" height="51.8182" transform="translate(0.272705 0.0908203)" fill="white"/>
<path fill-rule="evenodd" clip-rule="evenodd" d="M26.1818 0.0908203C11.8778 0.0908203 0.272705 11.6959 0.272705 25.9999C0.272705 40.3039 11.8778 51.909 26.1818 51.909C40.4577 51.909 52.0909 40.3039 52.0909 25.9999C52.0909 11.6959 40.4577 0.0908203 26.1818 0.0908203ZM43.2947 12.0328C46.4847 15.9177 48.25 20.7769 48.2974 25.8034C47.5676 25.6631 40.2612 24.1733 32.8987 25.1017C32.7282 24.7347 32.5878 24.3417 32.4194 23.9488C31.9615 22.8679 31.4748 21.7995 30.9599 20.7447C39.1083 17.4283 42.8176 12.6524 43.2947 12.0328V12.0328ZM26.1818 3.91457C31.8019 3.91457 36.9449 6.01968 40.8507 9.47639C40.4577 10.0378 37.1133 14.5071 29.2455 17.4564C25.6183 10.7978 21.6024 5.34389 20.9827 4.50184C22.6869 4.1039 24.4317 3.90608 26.1818 3.91241V3.91457ZM16.7682 5.99162C17.3576 6.77968 21.2915 12.2595 24.9727 18.7778C14.6307 21.5328 5.4977 21.4766 4.51532 21.4766C5.94895 14.6193 10.5867 8.91502 16.7682 5.99162ZM4.03816 26.028V25.3543C4.99464 25.3824 15.7275 25.5228 26.7734 22.2064C27.419 23.4435 28.0084 24.7066 28.5697 25.9718C28.2891 26.056 27.9803 26.1403 27.6996 26.2245C16.291 29.9057 10.2196 39.9649 9.71441 40.8091C6.05996 36.7533 4.03773 31.4873 4.03816 26.028V26.028ZM26.1818 48.1435C21.0669 48.1435 16.3471 46.4012 12.6098 43.4799C13.0027 42.6638 17.4979 34.008 29.9753 29.6531C30.0315 29.625 30.0617 29.625 30.1157 29.597C33.2355 37.6612 34.4986 44.4342 34.8376 46.3731C32.1668 47.526 29.2455 48.1435 26.1818 48.1435ZM38.5188 44.35C38.2943 43.0006 37.1133 36.5384 34.2179 28.5843C41.1594 27.4897 47.2286 29.2882 47.9886 29.5408C47.0321 35.6942 43.4912 41.0056 38.5188 44.35Z" fill="#F82103"/>
</svg>
