<svg width="48" height="48" viewBox="0 0 48 48" fill="none" xmlns="http://www.w3.org/2000/svg">
<path d="M21.2146 32.7211C20.2106 32.6097 19.2231 32.3813 18.2722 32.0405C18.3011 31.357 18.3185 30.6446 18.3185 29.9031V29.6714V28.9271C19.2163 29.3558 20.1923 29.6541 21.2146 29.8018V22.6628C21.2146 21.5106 21.6723 20.4056 22.487 19.5909C23.3017 18.7763 24.4067 18.3186 25.5589 18.3186H32.6979C32.4669 16.7138 31.8543 15.1878 30.9116 13.8687C29.9689 12.5496 28.7235 11.4759 27.28 10.7377C25.8365 9.99947 24.237 9.61829 22.6157 9.62614C20.9943 9.63399 19.3986 10.0306 17.9623 10.7828C17.7332 9.83556 17.3559 8.93046 16.8444 8.10096C18.7218 7.16384 20.7978 6.69392 22.8959 6.73115C24.9939 6.76837 27.0519 7.31164 28.895 8.31478C30.738 9.31791 32.3116 10.7512 33.482 12.4929C34.6523 14.2346 35.3848 16.2331 35.6172 18.3186H40.0396C41.1917 18.3186 42.2967 18.7763 43.1114 19.5909C43.9261 20.4056 44.3838 21.5106 44.3838 22.6628V37.1435C44.3838 38.2957 43.9261 39.4006 43.1114 40.2153C42.2967 41.03 41.1917 41.4877 40.0396 41.4877H25.5589C24.4067 41.4877 23.3017 41.03 22.487 40.2153C21.6723 39.4006 21.2146 38.2957 21.2146 37.1435V32.7211ZM35.6172 21.2147C35.2881 24.1531 33.9701 26.8924 31.8793 28.9832C29.7885 31.074 27.0492 32.392 24.1108 32.7211V37.1435C24.1108 37.5276 24.2633 37.8959 24.5349 38.1674C24.8065 38.439 25.1748 38.5916 25.5589 38.5916H40.0396C40.4236 38.5916 40.792 38.439 41.0635 38.1674C41.3351 37.8959 41.4877 37.5276 41.4877 37.1435V22.6628C41.4877 22.2787 41.3351 21.9104 41.0635 21.6388C40.792 21.3673 40.4236 21.2147 40.0396 21.2147H35.6172ZM32.6979 21.2147H25.5589C25.1748 21.2147 24.8065 21.3673 24.5349 21.6388C24.2633 21.9104 24.1108 22.2787 24.1108 22.6628V29.8018C26.277 29.4887 28.2839 28.4832 29.8316 26.9355C31.3793 25.3878 32.3847 23.381 32.6979 21.2147V21.2147Z" fill="#F82103"/>
<path d="M14.8286 22.8394C14.5245 21.7215 14.0322 20.6007 13.1865 19.7406C14.5535 18.446 15.4223 16.3839 15.4223 13.9743C15.4223 11.9557 15.014 10.5685 14.2755 9.45926C13.9478 8.98218 13.569 8.54226 13.146 8.1473C12.9838 7.99076 12.8197 7.83629 12.6536 7.68392C12.477 7.51884 12.3148 7.36824 12.1034 7.15682C11.6689 6.7224 11.6197 6.37486 11.6197 6.19241C11.6202 6.09099 11.6368 5.99029 11.6689 5.8941C11.8014 5.60775 11.8366 5.28599 11.7694 4.97775C11.7022 4.66951 11.5361 4.39165 11.2965 4.18645C11.0569 3.98124 10.7568 3.8599 10.4419 3.84089C10.1269 3.82188 9.81444 3.90623 9.55186 4.08112L9.54607 4.08401L9.53738 4.0898L9.51132 4.10718L9.42443 4.1651C8.99001 4.47497 8.57147 4.80651 8.1704 5.15848C7.44636 5.79853 6.50222 6.74557 5.83321 7.87507C5.2492 8.81147 4.78049 9.81502 4.43727 10.8639C4.08973 11.9036 3.83777 13.0302 3.83777 13.9743C3.83777 16.3839 4.70661 18.4431 6.07359 19.7435C5.22792 20.6007 4.73557 21.7215 4.43148 22.8423C3.83777 25.0202 3.83777 27.7137 3.83777 29.796V29.9031C3.83777 35.8634 4.95278 39.4025 6.2155 41.508C6.84976 42.5622 7.51008 43.2428 8.06324 43.6714C8.35799 43.9013 8.67877 44.0957 9.01897 44.2506C9.21571 44.3225 9.42128 44.3673 9.63006 44.3839C9.87333 44.3839 10.2411 44.2506 10.2411 44.2506C10.5813 44.0957 10.9021 43.9013 11.1969 43.6714C11.7471 43.2428 12.4133 42.5622 13.0446 41.508C14.3073 39.4054 15.4223 35.8634 15.4223 29.9031V29.7989C15.4223 27.7137 15.4223 25.0231 14.8286 22.8394ZM8.14434 21.7679C8.4716 21.4377 8.90892 21.2147 9.63006 21.2147C10.3541 21.2147 10.7885 21.4406 11.1158 21.765C11.4807 22.1328 11.7964 22.7294 12.0339 23.6011C12.5146 25.3707 12.5262 27.6934 12.5262 29.9031C12.5262 35.5275 11.4691 38.5047 10.5597 40.0194C10.2122 40.5986 9.88492 40.9722 9.63006 41.2068C9.26591 40.8566 8.95294 40.4569 8.7004 40.0194C7.79101 38.5018 6.73391 35.5275 6.73391 29.9031C6.73391 27.6934 6.7455 25.3707 7.22626 23.6011C7.46374 22.7323 7.77942 22.1328 8.14434 21.765V21.7679ZM9.63006 18.3186C8.51504 18.3186 6.73391 17.079 6.73391 13.9743C6.73391 13.4733 6.88451 12.6798 7.18571 11.782C7.46019 10.9344 7.8386 10.124 8.31231 9.36948C8.56428 8.94374 8.89154 8.52959 9.24487 8.1502C9.4447 8.50353 9.70825 8.85975 10.0558 9.20729C10.2672 9.41871 10.5423 9.67357 10.7769 9.89368L11.1361 10.2296C11.4401 10.525 11.6747 10.7828 11.863 11.0695C12.2105 11.5879 12.5262 12.3728 12.5262 13.9743C12.5262 17.079 10.7451 18.3186 9.63006 18.3186Z" fill="#F82103"/>
</svg>
