<svg width="48" height="48" viewBox="0 0 48 48" fill="none" xmlns="http://www.w3.org/2000/svg">
<path d="M19.036 44C18.056 40.804 16.578 38.422 14.601 36.853C11.636 34.5 6.92501 35.963 5.18501 33.535C3.44501 31.107 6.40401 26.643 7.44201 24.009C8.48101 21.375 3.46201 20.444 4.04801 19.696C4.43801 19.197 6.97501 17.759 11.657 15.38C12.987 7.793 17.9 4 26.398 4C39.144 4 44 14.806 44 21.68C44 28.553 38.12 35.957 29.744 37.554C28.995 38.644 30.075 40.794 32.984 44.001" stroke="#F82103" stroke-width="3" stroke-linecap="round" stroke-linejoin="round"/>
<path d="M21.5001 12.5C20.8461 15.034 21.0401 16.814 22.0831 17.838C23.1251 18.863 24.9011 19.533 27.4111 19.848C26.8411 23.118 27.5361 24.651 29.4941 24.449C31.4521 24.247 32.6291 23.434 33.0241 22.009C36.0841 22.869 37.7431 22.149 38.0001 19.849C38.3851 16.399 36.5251 13.648 35.7621 13.648C35.0001 13.648 33.0241 13.555 33.0241 12.5C33.0241 11.445 30.7161 10.85 28.6331 10.85C26.5501 10.85 27.8031 9.445 24.9431 10C23.0361 10.37 21.8881 11.203 21.5001 12.5V12.5Z" stroke="#F82103" stroke-width="3" stroke-linejoin="round"/>
</svg>
