<svg width="52" height="52" viewBox="0 0 52 52" fill="none" xmlns="http://www.w3.org/2000/svg">
<rect width="51.8182" height="51.8182" transform="translate(0 0.0908203)" fill="white"/>
<path d="M47.6533 0.0908203H4.16489C1.86545 0.0908203 0 1.95627 0 4.25571V47.7441C0 50.0435 1.86545 51.909 4.16489 51.909H47.6533C49.9527 51.909 51.8182 50.0435 51.8182 47.7441V4.25571C51.8182 1.95627 49.9527 0.0908203 47.6533 0.0908203V0.0908203ZM47.6533 47.7635C18.6481 47.7571 4.14545 47.7506 4.14545 47.7441C4.15193 18.7389 4.15841 4.23627 4.16489 4.23627C33.1701 4.24275 47.6727 4.24923 47.6727 4.25571C47.6662 33.2609 47.6598 47.7635 47.6533 47.7635ZM7.68205 19.5162H15.3706V44.2464H7.68205V19.5162ZM11.5295 16.135C13.9844 16.135 15.9859 14.14 15.9859 11.6787C15.9859 11.0934 15.8706 10.514 15.6467 9.97328C15.4227 9.43261 15.0945 8.94135 14.6807 8.52754C14.2669 8.11372 13.7756 7.78547 13.2349 7.56152C12.6943 7.33756 12.1148 7.2223 11.5295 7.2223C10.9443 7.2223 10.3648 7.33756 9.82417 7.56152C9.2835 7.78547 8.79223 8.11372 8.37842 8.52754C7.96461 8.94135 7.63636 9.43261 7.4124 9.97328C7.18845 10.514 7.07318 11.0934 7.07318 11.6787C7.0667 14.14 9.0617 16.135 11.5295 16.135ZM27.8717 32.0108C27.8717 28.7851 28.487 25.6631 32.4835 25.6631C36.4217 25.6631 36.48 29.3487 36.48 32.2181V44.2464H44.162V30.683C44.162 24.0243 42.7241 18.9008 34.9449 18.9008C31.2075 18.9008 28.7008 20.9541 27.6709 22.8973H27.5673V19.5162H20.1897V44.2464H27.8717V32.0108Z" fill="#F82103"/>
</svg>
